<?xml version="1.0" encoding="UTF-8" standalone="no"?>
<!-- Created with Inkscape (http://www.inkscape.org/) -->

<svg
   width="13.228798mm"
   height="13.229103mm"
   viewBox="0 0 13.228798 13.229103"
   version="1.1"
   id="svg5"
   xmlns="http://www.w3.org/2000/svg"
   xmlns:svg="http://www.w3.org/2000/svg">
  <defs
     id="defs2" />
  <g
     id="layer1"
     transform="translate(-91.095919,-111.07298)">
    <g
       id="g1316"
       transform="matrix(-1,0,0,1,195.42063,0)">
      <path
         id="path234-3"
         style="font-variation-settings:normal;fill:#280b0b;fill-opacity:0;fill-rule:evenodd;stroke:#ececec;stroke-width:0.533229;stroke-linecap:butt;stroke-linejoin:miter;stroke-miterlimit:4;stroke-dasharray:none;stroke-dashoffset:0;stroke-opacity:1;stop-color:#000000"
         d="m 96.022046,123.80278 a 6.1316237,6.1316237 0 0 0 0.05271,-0.002 6.1316237,6.1316237 0 0 0 0.478007,-0.0568 6.1316237,6.1316237 0 0 0 0.472322,-0.094 6.1316237,6.1316237 0 0 0 0.463538,-0.13074 6.1316237,6.1316237 0 0 0 0.451652,-0.1664 6.1316237,6.1316237 0 0 0 0.437183,-0.20154 6.1316237,6.1316237 0 0 0 0.420129,-0.23513 6.1316237,6.1316237 0 0 0 0.399976,-0.26768 6.1316237,6.1316237 0 0 0 0.378271,-0.29818 6.1316237,6.1316237 0 0 0 0.353467,-0.32659 6.1316237,6.1316237 0 0 0 0.326599,-0.35347 6.1316237,6.1316237 0 0 0 0.29817,-0.37827 6.1316237,6.1316237 0 0 0 0.26768,-0.40049 6.1316237,6.1316237 0 0 0 0.23513,-0.42013 6.1316237,6.1316237 0 0 0 0.20154,-0.43718 6.1316237,6.1316237 0 0 0 0.16691,-0.45166 6.1316237,6.1316237 0 0 0 0.13075,-0.46302 6.1316237,6.1316237 0 0 0 0.0935,-0.47232 6.1316237,6.1316237 0 0 0 0.0568,-0.47801 6.1316237,6.1316237 0 0 0 0.0186,-0.4811 6.1316237,6.1316237 0 0 0 -0.002,-0.16072 6.1316237,6.1316237 0 0 0 -0.006,-0.16019 6.1316237,6.1316237 0 0 0 -0.0103,-0.1602 6.1316237,6.1316237 0 0 0 -0.015,-0.1602 6.1316237,6.1316237 0 0 0 -0.0186,-0.15916 6.1316237,6.1316237 0 0 0 -0.0233,-0.15865 6.1316237,6.1316237 0 0 0 -0.0269,-0.15864 6.1316237,6.1316237 0 0 0 -0.0315,-0.1571 6.1316237,6.1316237 0 0 0 -0.0351,-0.15658 6.1316237,6.1316237 0 0 0 -0.0398,-0.15555 6.1316237,6.1316237 0 0 0 -0.0434,-0.15451 6.1316237,6.1316237 0 0 0 -0.0476,-0.15348 6.1316237,6.1316237 0 0 0 -0.0517,-0.15193 6.1316237,6.1316237 0 0 0 -0.0558,-0.15089 6.1316237,6.1316237 0 0 0 -0.0594,-0.14883 6.1316237,6.1316237 0 0 0 -0.0631,-0.14728 6.1316237,6.1316237 0 0 0 -0.0677,-0.14624 6.1316237,6.1316237 0 0 0 -0.0708,-0.14366 6.1316237,6.1316237 0 0 0 -0.0749,-0.14211 6.1316237,6.1316237 0 0 0 -0.078,-0.14005 6.1316237,6.1316237 0 0 0 -0.0822,-0.13797 6.1316237,6.1316237 0 0 0 -0.0858,-0.13591 6.1316237,6.1316237 0 0 0 -0.0889,-0.13333 6.1316237,6.1316237 0 0 0 -0.093,-0.13125 6.1316237,6.1316237 0 0 0 -0.0961,-0.12868 6.1316237,6.1316237 0 0 0 -0.0992,-0.12557 6.1316237,6.1316237 0 0 0 -0.10283,-0.12351 6.1316237,6.1316237 0 0 0 -0.10542,-0.12092 6.1316237,6.1316237 0 0 0 -0.10904,-0.11782 6.1316237,6.1316237 0 0 0 -0.112139,-0.11473 6.1316237,6.1316237 0 0 0 -0.114722,-0.11213 6.1316237,6.1316237 0 0 0 -0.118339,-0.10904 6.1316237,6.1316237 0 0 0 -0.120406,-0.10594 6.1316237,6.1316237 0 0 0 -0.123507,-0.10232 6.1316237,6.1316237 0 0 0 -0.12609,-0.0997 6.1316237,6.1316237 0 0 0 -0.128674,-0.0961 6.1316237,6.1316237 0 0 0 -0.130742,-0.0925 6.1316237,6.1316237 0 0 0 -0.133842,-0.0894 6.1316237,6.1316237 0 0 0 -0.135392,-0.0853 6.1316237,6.1316237 0 0 0 -0.137976,-0.0822 6.1316237,6.1316237 0 0 0 -0.140043,-0.0785 6.1316237,6.1316237 0 0 0 -0.14211,-0.0744 6.1316237,6.1316237 0 0 0 -0.144178,-0.0713 6.1316237,6.1316237 0 0 0 -0.145727,-0.0672 6.1316237,6.1316237 0 0 0 -0.147278,-0.0636 6.1316237,6.1316237 0 0 0 -0.149345,-0.0594 6.1316237,6.1316237 0 0 0 -0.150378,-0.0553 6.1316237,6.1316237 0 0 0 -0.151929,-0.0517 6.1316237,6.1316237 0 0 0 -0.153479,-0.0475 6.1316237,6.1316237 0 0 0 -0.154512,-0.0434 6.1316237,6.1316237 0 0 0 -0.155547,-0.0398 6.1316237,6.1316237 0 0 0 -0.156579,-0.0351 6.1316237,6.1316237 0 0 0 -0.157613,-0.0315 6.1316237,6.1316237 0 0 0 -0.15813,-0.0274 6.1316237,6.1316237 0 0 0 -0.158647,-0.0227 6.1316237,6.1316237 0 0 0 -0.15968,-0.0191 6.1316237,6.1316237 0 0 0 -0.15968,-0.0145 6.1316237,6.1316237 0 0 0 -0.04961,-0.003 6.3479686,6.3479686 0 0 0 -4.662764,6.11591 6.3479686,6.3479686 0 0 0 4.659664,6.11487 z" />
      <path
         id="path1309"
         style="font-variation-settings:normal;fill:#ececec;fill-opacity:1;fill-rule:evenodd;stroke:#ececec;stroke-width:0.533229;stroke-linecap:butt;stroke-linejoin:miter;stroke-miterlimit:4;stroke-dasharray:none;stroke-dashoffset:0;stroke-opacity:1;stop-color:#000000"
         d="m 97.710315,111.33997 a 6.3479686,6.3479686 0 0 0 -1.685169,0.23203 6.1316237,6.1316237 0 0 1 0.04961,0.003 6.1316237,6.1316237 0 0 1 0.15968,0.0145 6.1316237,6.1316237 0 0 1 0.15968,0.0191 6.1316237,6.1316237 0 0 1 0.158647,0.0227 6.1316237,6.1316237 0 0 1 0.15813,0.0274 6.1316237,6.1316237 0 0 1 0.157613,0.0315 6.1316237,6.1316237 0 0 1 0.156579,0.0351 6.1316237,6.1316237 0 0 1 0.155547,0.0398 6.1316237,6.1316237 0 0 1 0.154512,0.0434 6.1316237,6.1316237 0 0 1 0.153479,0.0475 6.1316237,6.1316237 0 0 1 0.151929,0.0517 6.1316237,6.1316237 0 0 1 0.150378,0.0553 6.1316237,6.1316237 0 0 1 0.149345,0.0594 6.1316237,6.1316237 0 0 1 0.147278,0.0636 6.1316237,6.1316237 0 0 1 0.145727,0.0672 6.1316237,6.1316237 0 0 1 0.144178,0.0713 6.1316237,6.1316237 0 0 1 0.14211,0.0744 6.1316237,6.1316237 0 0 1 0.140043,0.0785 6.1316237,6.1316237 0 0 1 0.137976,0.0822 6.1316237,6.1316237 0 0 1 0.135392,0.0853 6.1316237,6.1316237 0 0 1 0.133842,0.0894 6.1316237,6.1316237 0 0 1 0.130742,0.0925 6.1316237,6.1316237 0 0 1 0.128674,0.0961 6.1316237,6.1316237 0 0 1 0.12609,0.0997 6.1316237,6.1316237 0 0 1 0.123507,0.10232 6.1316237,6.1316237 0 0 1 0.120406,0.10594 6.1316237,6.1316237 0 0 1 0.118339,0.10904 6.1316237,6.1316237 0 0 1 0.114722,0.11213 6.1316237,6.1316237 0 0 1 0.112139,0.11473 6.1316237,6.1316237 0 0 1 0.10904,0.11782 6.1316237,6.1316237 0 0 1 0.10542,0.12092 6.1316237,6.1316237 0 0 1 0.10283,0.12351 6.1316237,6.1316237 0 0 1 0.0992,0.12557 6.1316237,6.1316237 0 0 1 0.0961,0.12868 6.1316237,6.1316237 0 0 1 0.093,0.13125 6.1316237,6.1316237 0 0 1 0.0889,0.13333 6.1316237,6.1316237 0 0 1 0.0858,0.13591 6.1316237,6.1316237 0 0 1 0.0822,0.13797 6.1316237,6.1316237 0 0 1 0.078,0.14005 6.1316237,6.1316237 0 0 1 0.0749,0.14211 6.1316237,6.1316237 0 0 1 0.0708,0.14366 6.1316237,6.1316237 0 0 1 0.0677,0.14624 6.1316237,6.1316237 0 0 1 0.0631,0.14728 6.1316237,6.1316237 0 0 1 0.0594,0.14883 6.1316237,6.1316237 0 0 1 0.0558,0.15089 6.1316237,6.1316237 0 0 1 0.0517,0.15193 6.1316237,6.1316237 0 0 1 0.0476,0.15348 6.1316237,6.1316237 0 0 1 0.0434,0.15451 6.1316237,6.1316237 0 0 1 0.0398,0.15555 6.1316237,6.1316237 0 0 1 0.0351,0.15658 6.1316237,6.1316237 0 0 1 0.0315,0.1571 6.1316237,6.1316237 0 0 1 0.0269,0.15864 6.1316237,6.1316237 0 0 1 0.0233,0.15865 6.1316237,6.1316237 0 0 1 0.0186,0.15916 6.1316237,6.1316237 0 0 1 0.015,0.1602 6.1316237,6.1316237 0 0 1 0.0103,0.1602 6.1316237,6.1316237 0 0 1 0.006,0.16019 6.1316237,6.1316237 0 0 1 0.002,0.16072 6.1316237,6.1316237 0 0 1 -0.0186,0.4811 6.1316237,6.1316237 0 0 1 -0.0568,0.47801 6.1316237,6.1316237 0 0 1 -0.0935,0.47232 6.1316237,6.1316237 0 0 1 -0.13075,0.46302 6.1316237,6.1316237 0 0 1 -0.16691,0.45166 6.1316237,6.1316237 0 0 1 -0.20154,0.43718 6.1316237,6.1316237 0 0 1 -0.23513,0.42013 6.1316237,6.1316237 0 0 1 -0.26768,0.40049 6.1316237,6.1316237 0 0 1 -0.29817,0.37827 6.1316237,6.1316237 0 0 1 -0.326599,0.35347 6.1316237,6.1316237 0 0 1 -0.353467,0.32659 6.1316237,6.1316237 0 0 1 -0.378271,0.29818 6.1316237,6.1316237 0 0 1 -0.399976,0.26768 6.1316237,6.1316237 0 0 1 -0.420129,0.23513 6.1316237,6.1316237 0 0 1 -0.437183,0.20154 6.1316237,6.1316237 0 0 1 -0.451652,0.1664 6.1316237,6.1316237 0 0 1 -0.463538,0.13074 6.1316237,6.1316237 0 0 1 -0.472322,0.094 6.1316237,6.1316237 0 0 1 -0.478007,0.0568 6.1316237,6.1316237 0 0 1 -0.05271,0.002 6.3479686,6.3479686 0 0 0 1.688269,0.23306 6.3479686,6.3479686 0 0 0 6.347935,-6.34793 6.3479686,6.3479686 0 0 0 -6.347935,-6.34794 z" />
    </g>
  </g>
</svg>
