<?xml version="1.0" encoding="UTF-8" standalone="no"?>
<svg
   version="1.2"
   width="10.253111mm"
   height="13.22917mm"
   viewBox="0 0 1025.3111 1322.917"
   preserveAspectRatio="xMidYMid"
   fill-rule="evenodd"
   stroke-width="28.222"
   stroke-linejoin="round"
   xml:space="preserve"
   id="svg66"
   xmlns="http://www.w3.org/2000/svg"
   xmlns:svg="http://www.w3.org/2000/svg">
 <defs
   class="ClipPathGroup"
   id="defs8"><clipPath
     id="presentation_clip_path-29"
     clipPathUnits="userSpaceOnUse">
   <rect
   x="0"
   y="0"
   width="21000"
   height="29700"
   id="rect1767" />
  </clipPath></defs>
 <defs
   class="TextShapeIndex"
   id="defs12" />
 <defs
   class="EmbeddedBulletChars"
   id="defs44" />
 
 
<g
   style="fill-rule:evenodd;stroke-width:28.222;stroke-linejoin:round"
   id="g1873"
   transform="matrix(0.10590959,0,0,0.10590959,-364.11702,-841.87525)"><g
     id="g1814">
  <g
   id="id2-1"
   class="Master_Slide">
   <g
   id="bg-id2-0"
   class="Background" />
   <g
   id="bo-id2-6"
   class="BackgroundObjects" />
  </g>
 </g><g
     class="SlideGroup"
     id="g1829">
  <g
   id="g1827">
   <g
   id="container-id1-3">
    <g
   id="id1-2"
   class="Slide"
   clip-path="url(#presentation_clip_path-29)">
     <g
   class="Page"
   id="g1823">
      <g
   class="com.sun.star.drawing.ClosedBezierShape"
   id="g1821">
       <g
   id="id3-0">
        <rect
   class="BoundingBox"
   stroke="none"
   fill="none"
   x="3438"
   y="7949"
   width="9681"
   height="12491"
   id="rect1816" />
        <path
   fill="#dddddd"
   stroke="none"
   d="m 6873,20439 c 548,0 1091,-72 1616,-213 525,-140 1032,-350 1507,-624 474,-274 909,-608 1293,-992 384,-384 718,-819 992,-1293 274,-475 484,-982 624,-1507 141,-525 213,-1068 213,-1616 0,-548 -72,-1091 -213,-1616 -140,-525 -350,-1032 -624,-1506 -274,-475 -608,-910 -992,-1294 -384,-384 -819,-718 -1293,-992 -475,-274 -982,-484 -1507,-624 -525,-141 -1068,-213 -1616,-213 -221,0 -441,12 -660,35 -579,538 -1084,1145 -1498,1807 -418,670 -737,1384 -952,2124 -215,740 -325,1506 -325,2279 0,773 110,1539 325,2279 215,740 534,1454 952,2124 414,662 919,1269 1498,1807 219,23 439,35 660,35 z"
   id="path1818" />
       </g>
      </g>
     </g>
    </g>
   </g>
  </g>
 </g></g></svg>
