<?xml version="1.0" encoding="UTF-8" standalone="no"?>
<svg
   version="1.2"
   width="7.6752639mm"
   height="13.22917mm"
   viewBox="0 0 767.52639 1322.917"
   preserveAspectRatio="xMidYMid"
   fill-rule="evenodd"
   stroke-width="28.222"
   stroke-linejoin="round"
   xml:space="preserve"
   id="svg66"
   sodipodi:docname="luna_creciente.svg"
   xmlns:inkscape="http://www.inkscape.org/namespaces/inkscape"
   xmlns:sodipodi="http://sodipodi.sourceforge.net/DTD/sodipodi-0.dtd"
   xmlns="http://www.w3.org/2000/svg"
   xmlns:svg="http://www.w3.org/2000/svg"><sodipodi:namedview
   id="namedview68"
   pagecolor="#ffffff"
   bordercolor="#666666"
   borderopacity="1.0"
   inkscape:showpageshadow="2"
   inkscape:pageopacity="0.0"
   inkscape:pagecheckerboard="0"
   inkscape:deskcolor="#d1d1d1"
   inkscape:document-units="mm"
   showgrid="false" />
 <defs
   class="ClipPathGroup"
   id="defs8"><clipPath
     id="presentation_clip_path-8"
     clipPathUnits="userSpaceOnUse">
   <rect
   x="0"
   y="0"
   width="21000"
   height="29700"
   id="rect4793" />
  </clipPath></defs>
 <defs
   class="TextShapeIndex"
   id="defs12" />
 <defs
   class="EmbeddedBulletChars"
   id="defs44" />
 
 
<g
   style="fill-rule:evenodd;stroke-width:28.222;stroke-linejoin:round"
   id="g4899"
   transform="matrix(0.10590959,0,0,0.10590959,-1025.3105,-841.87569)"
   inkscape:export-filename="../luna_menguante.svg"
   inkscape:export-xdpi="96"
   inkscape:export-ydpi="96"><g
     id="g4840">
  <g
   id="id2-11"
   class="Master_Slide">
   <g
   id="bg-id2-5"
   class="Background" />
   <g
   id="bo-id2-97"
   class="BackgroundObjects" />
  </g>
 </g><g
     class="SlideGroup"
     id="g4855">
  <g
   id="g4853">
   <g
   id="container-id1-76">
    <g
   id="id1-7"
   class="Slide"
   clip-path="url(#presentation_clip_path-8)">
     <g
   class="Page"
   id="g4849">
      <g
   class="com.sun.star.drawing.ClosedBezierShape"
   id="g4847">
       <g
   id="id3-36">
        <rect
   class="BoundingBox"
   stroke="none"
   fill="none"
   x="9681"
   y="7949"
   width="7247"
   height="12491"
   id="rect4842" />
        <path
   fill="#eeeeee"
   stroke="none"
   d="m 11894,15810 c -141,-525 -213,-1068 -213,-1616 0,-548 72,-1091 213,-1616 140,-525 350,-1032 624,-1507 274,-474 608,-909 992,-1293 384,-384 819,-718 1294,-992 474,-274 981,-484 1506,-624 203,-55 409,-99 617,-132 -330,-54 -664,-81 -1000,-81 -548,0 -1091,72 -1616,213 -525,140 -1032,350 -1506,624 -475,274 -910,608 -1294,992 -384,384 -718,819 -992,1293 -274,475 -484,982 -624,1507 -141,525 -213,1068 -213,1616 0,548 72,1091 213,1616 140,525 350,1032 624,1507 274,474 608,909 992,1293 384,384 819,718 1293,992 475,274 982,484 1507,624 525,141 1068,213 1616,213 336,0 670,-27 1000,-81 -208,-33 -414,-77 -617,-132 -525,-140 -1032,-350 -1507,-624 -474,-274 -909,-608 -1293,-992 -384,-384 -718,-819 -992,-1293 -274,-475 -484,-982 -624,-1507 z"
   id="path4844" />
       </g>
      </g>
     </g>
    </g>
   </g>
  </g>
 </g></g></svg>
